<svg id="Layer_1" data-name="Layer 1" xmlns="http://www.w3.org/2000/svg" viewBox="0 0 191.11 156.5"><defs><style>.cls-1{fill:#d6d6d6;}.cls-2{fill:none;stroke:#d6d6d6;stroke-miterlimit:10;stroke-width:7px;}</style></defs><title>blog</title><path class="cls-1" d="M170.19,245h-65.7C96.73,245,94,242.31,94,234.7q0-34.67,0-69.33c0-6.93,2.89-9.88,9.7-9.88q66.91,0,133.83,0c6.8,0,9.69,3,9.69,9.89q0,34.87,0,69.73c0,7-2.92,9.88-10.1,9.88H170.19Z" transform="translate(-93.98 -88.5)"/><path class="cls-2" d="M161.73,119a27,27,0,1,1-26.8-27A27.2,27.2,0,0,1,161.73,119Z" transform="translate(-93.98 -88.5)"/><path class="cls-2" d="M202.48,92a27,27,0,1,1-27,26.79A27.19,27.19,0,0,1,202.48,92Z" transform="translate(-93.98 -88.5)"/><path class="cls-1" d="M285,198.84c0,9.61,0,19.22,0,28.84,0,1,.56,2.41-0.79,3-1.13.46-2.23-.3-3-1-9-8.75-18.48-17-26.93-26.33-2.82-3.1-2.81-6.16.06-9.26,8.62-9.31,18-17.9,27.16-26.62a2.38,2.38,0,0,1,2.68-.72c1.2,0.52.81,1.68,0.81,2.6Q285,184.06,285,198.84Z" transform="translate(-93.98 -88.5)"/></svg>