<?xml version="1.0" encoding="utf-8"?>
<!-- Generator: Adobe Illustrator 19.2.1, SVG Export Plug-In . SVG Version: 6.00 Build 0)  -->
<svg version="1.1" id="Layer_1" xmlns="http://www.w3.org/2000/svg" xmlns:xlink="http://www.w3.org/1999/xlink" x="0px" y="0px"
	 viewBox="0 0 360 360" style="enable-background:new 0 0 360 360;" xml:space="preserve">
<style type="text/css">
	.st0{fill:#BFC5CB;stroke:#BFC5CB;stroke-width:6.3163;stroke-miterlimit:10;}
	.st1{fill:#BFC5CB;}
	.st2{fill:#BFC5CB;stroke:#BFC5CB;stroke-width:5.6837;stroke-linecap:round;stroke-linejoin:round;stroke-miterlimit:10;}
</style>
<path class="st0" d="M27.5-34c-14.3-1-29.1-1.4-44.4-2.4c-20.5-1-41.5-2.4-61.6-2.9c-2.9,0-6.7,1-9.5,1.4
	c-28.2,8.6-57.3,18.1-85.9,26.7c-3.8,1.4-5.3,2.9-5.7,6.7c-1.4,11-8.1,17.7-17.7,21s-19.1,2.4-26.3-4.3c-13.8-11.5-8.1-34.9,10-40.6
	c11.5-3.8,21-1.4,29.6,8.1c1,1,3.8,1.4,4.3,1.4c19.6-5.7,40.1-11.5,59.7-19.1c3.8-1.4,8.1-6.7,7.2-9.5c-1-3.8-5.3-8.1-8.6-8.6
	c-19.6-5.3-40.1-8.6-59.7-13.8c-2.9-1-4.3,0-5.7,2.4c-6.7,9.5-18.1,12.9-29.6,9.5c-11-3.8-18.1-12.9-19.1-23.9
	c0-15.8,17.7-27.7,33.4-22c9.5,2.9,15.8,9.5,18.1,19.1c1,2.9,1.4,4.3,5.3,5.3c30.6,6.7,61.1,13.8,90.7,19.6c7.2,1.4,15.3-1,22.4-1.4
	c28.2-3.8,56.8-8.1,84.5-11.5c1.4,0,2.9,0,5.3,1c-22.4,7.2-44.9,14.3-68.3,22c0,1,0,1,0,1.4c23.4,5.3,46.3,10,69.7,15.3
	C27.5-35,27.5-35,27.5-34z M-185-8.2c0-9.5-8.6-17.7-19.6-16.7c-11.5,1-21,10.5-21,20.5c0,10,9.5,17.7,20.5,17.7
	C-193.6,12.3-184,2.7-185-8.2z M-210.3-100.4c-11,1-19.6,8.6-19.1,19.1c1,10,11,19.1,22.4,18.1c11-1,19.1-8.6,19.1-19.1
	C-188.8-92.3-198.8-101.4-210.3-100.4z M-104.8-48.8c2.4,1.4,3.8,2.9,5.3,2.9c1.4,0,2.9-2.4,2.9-2.9c-1-1.4-2.4-2.9-3.8-3.8
	C-101.9-52.7-103.3-50.7-104.8-48.8z"/>
<path class="st1" d="M251.2,273H57.8c-6.1,0-11-4.9-11-11V160.1c0-6.1,4.9-11,11-11h193.5c6.1,0,11,4.9,11,11v101.9
	C262.3,268,257.3,273,251.2,273z"/>
<polygon class="st2" points="271,210.1 320.4,261.1 320.4,160.8 "/>
<circle class="st1" cx="103.3" cy="100.8" r="36.6"/>
<circle class="st1" cx="200.4" cy="101.4" r="36.6"/>
</svg>
