<?xml version="1.0" encoding="utf-8"?>
<!-- Generator: Adobe Illustrator 19.2.1, SVG Export Plug-In . SVG Version: 6.00 Build 0)  -->
<svg version="1.1" id="Layer_1" xmlns="http://www.w3.org/2000/svg" xmlns:xlink="http://www.w3.org/1999/xlink" x="0px" y="0px"
	 viewBox="0 0 57.6 57.6" style="enable-background:new 0 0 57.6 57.6;" xml:space="preserve">
<style type="text/css">
	.st0{fill:#BFC5CB;stroke:#BFC5CB;stroke-width:1.7241;stroke-miterlimit:10;}
</style>
<path class="st0" d="M30.7,11c0.5,0.1,1,0.1,1.5,0.2c1.5,0.3,2.9,0.8,4.2,1.6c1.1,0.7,2.2,1.6,3.1,2.6c0.9,1.1,1.6,2.3,2.1,3.7
	c0.5,1.3,0.7,2.6,0.8,4c0,1.3-0.2,2.5-0.6,3.7c-0.8,2.3-2,4.4-3.4,6.4c-1.1,1.6-2.3,3.3-3.6,4.9c-1.2,1.5-2.6,3-3.9,4.5
	c-0.3,0.3-0.6,0.7-1,1.1c-0.5-0.5-1-1-1.4-1.5c-1.4-1.6-2.8-3.3-4.2-4.9c-1.7-2.1-3.3-4.4-4.7-6.8c-0.8-1.4-1.5-3-2-4.6
	c-0.4-1.4-0.4-2.8-0.1-4.2c0.3-2.1,1.2-4.1,2.5-5.8c1-1.2,2.2-2.3,3.6-3.1c1.6-0.9,3.4-1.5,5.3-1.7c0.1,0,0.1,0,0.2,0
	C29.6,11,30.1,11,30.7,11z M35,23.6c0-2.9-2.3-5.2-5.2-5.2c-2.9,0-5.2,2.3-5.2,5.2s2.3,5.2,5.2,5.2C32.7,28.8,35,26.5,35,23.6z"/>
</svg>
