<?xml version="1.0" encoding="utf-8"?>
<!-- Generator: Adobe Illustrator 19.2.1, SVG Export Plug-In . SVG Version: 6.00 Build 0)  -->
<svg version="1.1" id="Layer_1" xmlns="http://www.w3.org/2000/svg" xmlns:xlink="http://www.w3.org/1999/xlink" x="0px" y="0px"
	 viewBox="0 0 57.6 57.6" style="enable-background:new 0 0 57.6 57.6;" xml:space="preserve">
<style type="text/css">
	.st0{fill:#BFC5CB;stroke:#BFC5CB;stroke-width:1.3228;stroke-miterlimit:10;}
</style>
<path class="st0" d="M56,31c-3-0.2-6.1-0.3-9.3-0.5c-4.3-0.2-8.7-0.5-12.9-0.6c-0.6,0-1.4,0.2-2,0.3c-5.9,1.8-12,3.8-18,5.6
	c-0.8,0.3-1.1,0.6-1.2,1.4c-0.3,2.3-1.7,3.7-3.7,4.4s-4,0.5-5.5-0.9c-2.9-2.4-1.7-7.3,2.1-8.5c2.4-0.8,4.4-0.3,6.2,1.7
	c0.2,0.2,0.8,0.3,0.9,0.3c4.1-1.2,8.4-2.4,12.5-4c0.8-0.3,1.7-1.4,1.5-2c-0.2-0.8-1.1-1.7-1.8-1.8c-4.1-1.1-8.4-1.8-12.5-2.9
	c-0.6-0.2-0.9,0-1.2,0.5c-1.4,2-3.8,2.7-6.2,2c-2.3-0.8-3.8-2.7-4-5c0-3.3,3.7-5.8,7-4.6c2,0.6,3.3,2,3.8,4c0.2,0.6,0.3,0.9,1.1,1.1
	c6.4,1.4,12.8,2.9,19,4.1c1.5,0.3,3.2-0.2,4.7-0.3c5.9-0.8,11.9-1.7,17.7-2.4c0.3,0,0.6,0,1.1,0.2c-4.7,1.5-9.4,3-14.3,4.6
	c0,0.2,0,0.2,0,0.3c4.9,1.1,9.7,2.1,14.6,3.2C56,30.8,56,30.8,56,31z M11.5,36.4c0-2-1.8-3.7-4.1-3.5C5,33.1,3,35.1,3,37.2
	c0,2.1,2,3.7,4.3,3.7C9.7,40.7,11.7,38.7,11.5,36.4z M6.2,17.1c-2.3,0.2-4.1,1.8-4,4c0.2,2.1,2.3,4,4.7,3.8c2.3-0.2,4-1.8,4-4
	C10.7,18.8,8.6,16.9,6.2,17.1z M28.3,27.9c0.5,0.3,0.8,0.6,1.1,0.6s0.6-0.5,0.6-0.6c-0.2-0.3-0.5-0.6-0.8-0.8
	C28.9,27.1,28.6,27.5,28.3,27.9z"/>
</svg>
