<?xml version="1.0" encoding="utf-8"?>
<!-- Generator: Adobe Illustrator 19.2.1, SVG Export Plug-In . SVG Version: 6.00 Build 0)  -->
<svg version="1.1" id="Layer_1" xmlns="http://www.w3.org/2000/svg" xmlns:xlink="http://www.w3.org/1999/xlink" x="0px" y="0px"
	 viewBox="0 0 57.6 57.6" style="enable-background:new 0 0 57.6 57.6;" xml:space="preserve">
<style type="text/css">
	.st0{fill:#BFC5CB;stroke:#BFC5CB;stroke-width:0.8689;stroke-miterlimit:10;}
</style>
<path class="st0" d="M47.4,30.7c-2-0.1-4-0.2-6.1-0.3c-2.8-0.1-5.7-0.3-8.5-0.4c-0.4,0-0.9,0.1-1.3,0.2c-3.9,1.2-7.9,2.5-11.8,3.7
	c-0.5,0.2-0.7,0.4-0.8,0.9c-0.2,1.5-1.1,2.4-2.4,2.9c-1.3,0.5-2.6,0.3-3.6-0.6c-1.9-1.6-1.1-4.8,1.4-5.6c1.6-0.5,2.9-0.2,4.1,1.1
	c0.1,0.1,0.5,0.2,0.6,0.2c2.7-0.8,5.5-1.6,8.2-2.6c0.5-0.2,1.1-0.9,1-1.3c-0.1-0.5-0.7-1.1-1.2-1.2c-2.7-0.7-5.5-1.2-8.2-1.9
	c-0.4-0.1-0.6,0-0.8,0.3c-0.9,1.3-2.5,1.8-4.1,1.3c-1.5-0.5-2.5-1.8-2.6-3.3c0-2.2,2.4-3.8,4.6-3c1.3,0.4,2.2,1.3,2.5,2.6
	c0.1,0.4,0.2,0.6,0.7,0.7c4.2,0.9,8.4,1.9,12.5,2.7c1,0.2,2.1-0.1,3.1-0.2c3.9-0.5,7.8-1.1,11.6-1.6c0.2,0,0.4,0,0.7,0.1
	c-3.1,1-6.2,2-9.4,3c0,0.1,0,0.1,0,0.2c3.2,0.7,6.4,1.4,9.6,2.1C47.4,30.6,47.4,30.6,47.4,30.7z M18.2,34.3C18.2,33,17,31.9,15.5,32
	c-1.6,0.1-2.9,1.4-2.9,2.8c0,1.4,1.3,2.4,2.8,2.4C17,37.1,18.3,35.8,18.2,34.3z M14.7,21.6c-1.5,0.1-2.7,1.2-2.6,2.6
	c0.1,1.4,1.5,2.6,3.1,2.5c1.5-0.1,2.6-1.2,2.6-2.6C17.7,22.7,16.3,21.5,14.7,21.6z M29.2,28.7c0.3,0.2,0.5,0.4,0.7,0.4
	s0.4-0.3,0.4-0.4c-0.1-0.2-0.3-0.4-0.5-0.5C29.6,28.2,29.4,28.4,29.2,28.7z"/>
</svg>
