<?xml version="1.0" encoding="utf-8"?>
<!-- Generator: Adobe Illustrator 19.2.1, SVG Export Plug-In . SVG Version: 6.00 Build 0)  -->
<svg version="1.1" id="Layer_1" xmlns="http://www.w3.org/2000/svg" xmlns:xlink="http://www.w3.org/1999/xlink" x="0px" y="0px"
	 viewBox="0 0 258 80.9" style="enable-background:new 0 0 258 80.9;" xml:space="preserve">
<style type="text/css">
	.st0{fill:none;}
	.st1{enable-background:new    ;}
	.st2{fill:#58595B;}
	.st3{fill:#D1515A;}
	.st4{fill:none;stroke:#BFC5CB;stroke-width:1.2549;stroke-miterlimit:10;}
</style>
<rect x="108.5" y="56.7" class="st0" width="76.7" height="18.4"/>
<g class="st1">
	<path class="st2" d="M124.2,63.6h-0.7v-3h-3.4v3h-0.7v-6.4h0.7v2.7h3.4v-2.7h0.7V63.6z"/>
	<path class="st2" d="M130.1,63.6l-0.8-2h-2.6l-0.8,2h-0.8l2.5-6.5h0.6l2.5,6.5H130.1z M129,60.9l-0.7-2c-0.1-0.3-0.2-0.6-0.3-0.9
		c-0.1,0.3-0.2,0.6-0.3,0.9l-0.8,2H129z"/>
	<path class="st2" d="M131.7,63.6v-6.4h0.7v6.4H131.7z"/>
	<path class="st2" d="M135,60.9v2.7h-0.7v-6.4h1.8c0.8,0,1.4,0.2,1.7,0.5c0.4,0.3,0.6,0.8,0.6,1.4c0,0.8-0.4,1.4-1.3,1.7l1.7,2.9
		h-0.9l-1.6-2.7H135z M135,60.3h1c0.5,0,0.9-0.1,1.2-0.3c0.2-0.2,0.4-0.5,0.4-0.9c0-0.4-0.1-0.7-0.4-0.9c-0.2-0.2-0.7-0.3-1.2-0.3
		h-1V60.3z"/>
	<path class="st2" d="M145.7,61.9c0,0.6-0.2,1-0.6,1.3s-1,0.5-1.7,0.5c-0.8,0-1.3-0.1-1.8-0.3v-0.7c0.3,0.1,0.6,0.2,0.9,0.3
		c0.3,0.1,0.6,0.1,0.9,0.1c0.5,0,0.9-0.1,1.1-0.3c0.3-0.2,0.4-0.5,0.4-0.8c0-0.2,0-0.4-0.1-0.5c-0.1-0.1-0.2-0.3-0.4-0.4
		c-0.2-0.1-0.5-0.3-1-0.4c-0.6-0.2-1-0.5-1.3-0.8c-0.3-0.3-0.4-0.7-0.4-1.1c0-0.5,0.2-0.9,0.6-1.2c0.4-0.3,0.9-0.4,1.5-0.4
		c0.6,0,1.2,0.1,1.8,0.4l-0.2,0.7c-0.5-0.2-1-0.3-1.5-0.3c-0.4,0-0.7,0.1-0.9,0.3s-0.3,0.4-0.3,0.7c0,0.2,0,0.4,0.1,0.5
		c0.1,0.1,0.2,0.3,0.4,0.4c0.2,0.1,0.5,0.2,0.9,0.4c0.7,0.2,1.1,0.5,1.4,0.8C145.6,61.1,145.7,61.4,145.7,61.9z"/>
	<path class="st2" d="M151.1,63.6l-0.8-2h-2.6l-0.8,2h-0.8l2.5-6.5h0.6l2.5,6.5H151.1z M150.1,60.9l-0.7-2c-0.1-0.3-0.2-0.6-0.3-0.9
		c-0.1,0.3-0.2,0.6-0.3,0.9l-0.8,2H150.1z"/>
	<path class="st2" d="M152.8,63.6v-6.4h0.7v5.7h2.8v0.7H152.8z"/>
	<path class="st2" d="M163,60.4c0,1-0.3,1.8-0.8,2.4c-0.5,0.6-1.2,0.9-2.2,0.9c-0.9,0-1.7-0.3-2.2-0.9c-0.5-0.6-0.8-1.4-0.8-2.5
		c0-1,0.3-1.9,0.8-2.4c0.5-0.6,1.2-0.9,2.2-0.9c0.9,0,1.6,0.3,2.2,0.9S163,59.3,163,60.4z M157.9,60.4c0,0.9,0.2,1.5,0.6,2
		c0.4,0.4,0.9,0.7,1.6,0.7c0.7,0,1.2-0.2,1.6-0.7s0.5-1.1,0.5-2c0-0.9-0.2-1.5-0.5-2c-0.4-0.4-0.9-0.7-1.6-0.7
		c-0.7,0-1.3,0.2-1.6,0.7C158.1,58.8,157.9,59.5,157.9,60.4z"/>
	<path class="st2" d="M169.5,63.6h-0.9l-3.5-5.4h0c0,0.6,0.1,1.2,0.1,1.7v3.7h-0.7v-6.4h0.8l3.5,5.4h0c0-0.1,0-0.3,0-0.8
		c0-0.4,0-0.7,0-0.9v-3.7h0.7V63.6z"/>
</g>
<rect x="-13.5" y="19.8" class="st0" width="277.8" height="40.1"/>
<g class="st1">
	<path class="st3" d="M52.1,38.2c0-4.5,1.6-8.8,3.9-12c2.5-3.6,6.2-6.4,10.1-6.4c4,0,7.1,3,7.1,7.1c0,3.9-2.8,7.5-6.3,7.5
		c-2.4,0-4.4-1.6-4.4-3.8c0-1.5,1-2.4,1.6-2.7l0.4,0.2c-0.2,0.7-0.3,1.4-0.3,2c0,2.1,1.4,3.1,2.8,3.1c2.3,0,4-2.6,4-5.7
		c0-3.3-1.9-6.3-5.5-6.3c-3.7,0-6.3,3.1-7.9,6.4c-1.4,2.9-2.1,6.3-2.1,9.6c0,6.1,2.7,11.3,7.3,11.3c3.6,0,6.1-3.3,6.8-7.4l0.7,0
		c0.1,0.4,0.1,0.8,0.1,1.2c0,4.5-4.5,7.8-9,7.8C55.6,50.1,52.1,44.8,52.1,38.2z"/>
	<path class="st3" d="M73.4,44.6c0-5,1-11.1,2.4-16.3c0.7-2.7,1.6-5.1,2.4-7c0.9-0.7,2.4-1.6,3-1.6c0.4,0,0.8,0.3,1.2,0.7
		c0.9,0.9,1.9,2.5,1.9,4.9c0,4.2-3,8.7-7.1,9.9c-0.4,2.6-0.8,5.8-0.8,8c0,0.6,0,1,0,1.6h0.1c0.3-2,0.8-3.8,1.4-5.2
		c1.3-3.1,3.3-5.4,5.7-5.7c1.6,0.2,2.8,1.1,3.5,2.3c-0.5,2.5-1.2,5.1-1.2,7.9c0,2.6,0.7,4.5,1.8,4.5c1.4,0,3.3-2.6,4.7-10.8l0.9,0.1
		c-1.7,9.7-4.2,12.2-6.5,12.2c-2.1,0-4-1.9-4-6.1c0-2.8,0.9-5.7,0.9-6.9c0-0.7-0.3-1.2-1-1.2c-0.5,0-1.1,0.3-1.7,0.7
		c-0.9,0.9-1.8,2.4-2.6,4.4c-1.1,3.1-1.4,6.2-1.4,8.3c-0.8,0.5-1.6,0.7-2,0.7C73.5,49.8,73.4,46.4,73.4,44.6z M82.3,26.5
		c0-1.7-0.6-3.6-1.8-4.7c-1.3,3.6-2.3,7.7-3.1,12.2C80.4,33,82.3,29.7,82.3,26.5z"/>
	<path class="st3" d="M95,34.9l0.4,0.7c-1.4,1-2,3.6-2,5.9c0,3.6,1.6,6.9,4.2,6.9c1.9,0,3.1-1.7,3.8-3.7c-3.1-0.7-5.6-3.5-5.6-7
		c0-3,1.7-4.8,3.8-4.8c2.2,0,4.7,1.9,4.7,6.5c0,1.4-0.2,2.8-0.7,4.1c2.5-0.1,4.6-1.7,5.2-5.8l0.9,0.1c-0.7,5.7-4,7.2-6.7,7.2
		c-1.2,2.6-3.6,5.1-6.6,5.1c-3.2,0-6-2.7-6-7.1C90.4,39.4,92.1,36.3,95,34.9z M101.9,41.2c0-3.4-1.6-6.4-3.3-6.4
		c-1.1,0-1.6,1.5-1.6,2.7c0,2.6,2,5,4.7,5.7C101.8,42.6,101.9,42,101.9,41.2z"/>
	<path class="st3" d="M108.8,37.3c0-1.2,0-2.2-0.2-3.2c0.6-0.4,1.9-0.9,2.4-0.9c0.9,0,0.9,1,0.9,2.1c0,1.6-0.2,4-0.4,5.9h0.1
		c1.3-4.3,3-8,6.3-8c2.7,0,4,2.6,4,5.5c0,2.4-0.9,5.5-2.9,8c-1.7,2.1-4,3.4-6.5,3.4c-0.9,0-1.4-0.2-1.9-0.3
		c-0.6,3.9-1.3,7.9-1.9,11.4c-0.8,0.7-2,1.2-2.6,1.2c-0.3,0-0.5-0.2-0.5-0.5c0-0.6,0.6-3.3,1.5-8C108,48.3,108.8,42.8,108.8,37.3z
		 M114,48.5c1.4,0,2.5-0.9,3.3-2.4c1-1.9,1.4-4.7,1.4-6.5c0-1.3-0.2-4.6-1.9-4.6c-1.3,0-2.6,2.1-3.7,4.9c-0.9,2.4-1.7,5.5-2.2,7.7
		C111.6,48.1,113.1,48.5,114,48.5z"/>
	<path class="st3" d="M133.5,37.8l0.4,0.6c-1.2,0.9-1.7,2.2-1.7,3.7c0,3.4,3,6.4,6.7,6.4c3.1,0,6.1-2.1,6.1-5.6
		c0-3.3-2.7-5.2-5.9-7.3c-2.9-2-5.7-4-5.7-7.7c0-4.9,4.9-8,9.3-8c3.1,0,6.6,1.6,6.6,4.8c0,1.8-1,3.2-2.6,3.9l-0.5-0.5
		c0.5-0.5,0.8-1.1,0.8-2.1c0-2.6-2.4-4.6-5.4-4.6c-2.7,0-5.6,1.6-5.6,4.7c0,3,2.6,5,5.4,7c2.9,2,5.9,4,5.9,8.2
		c0,5.2-4.9,8.9-9.8,8.9c-4,0-7.8-2.4-7.8-6.6C130,41.1,131.3,38.7,133.5,37.8z"/>
	<path class="st3" d="M150.7,44.6c0-5,1-11.1,2.4-16.3c0.7-2.7,1.6-5.1,2.4-7c0.9-0.7,2.4-1.6,3-1.6c0.4,0,0.8,0.3,1.2,0.7
		c0.9,0.9,1.9,2.5,1.9,4.9c0,4.2-3,8.7-7.1,9.9c-0.4,2.6-0.8,5.8-0.8,8c0,0.6,0,1,0,1.6h0.1c0.3-2,0.8-3.8,1.4-5.2
		c1.3-3.1,3.3-5.4,5.7-5.7c1.6,0.2,2.8,1.1,3.5,2.3c-0.5,2.5-1.2,5.1-1.2,7.9c0,2.6,0.7,4.5,1.8,4.5c1.4,0,3.3-2.6,4.7-10.8l0.9,0.1
		c-1.7,9.7-4.2,12.2-6.5,12.2c-2.1,0-4-1.9-4-6.1c0-2.8,0.9-5.7,0.9-6.9c0-0.7-0.3-1.2-1-1.2c-0.5,0-1.1,0.3-1.7,0.7
		c-0.9,0.9-1.8,2.4-2.6,4.4c-1.1,3.1-1.4,6.2-1.4,8.3c-0.8,0.5-1.6,0.7-2,0.7C150.8,49.8,150.7,46.4,150.7,44.6z M159.6,26.5
		c0-1.7-0.6-3.6-1.8-4.7c-1.3,3.6-2.3,7.7-3.1,12.2C157.7,33,159.6,29.7,159.6,26.5z"/>
	<path class="st3" d="M172.3,34.9l0.4,0.7c-1.4,1-2,3.6-2,5.9c0,3.6,1.6,6.9,4.2,6.9c1.9,0,3.1-1.7,3.8-3.7c-3.1-0.7-5.6-3.5-5.6-7
		c0-3,1.7-4.8,3.8-4.8c2.2,0,4.7,1.9,4.7,6.5c0,1.4-0.2,2.8-0.7,4.1c2.5-0.1,4.6-1.7,5.2-5.8l0.9,0.1c-0.7,5.7-4,7.2-6.7,7.2
		c-1.2,2.6-3.6,5.1-6.6,5.1c-3.2,0-6-2.7-6-7.1C167.7,39.4,169.4,36.3,172.3,34.9z M179.2,41.2c0-3.4-1.6-6.4-3.3-6.4
		c-1.1,0-1.6,1.5-1.6,2.7c0,2.6,2,5,4.7,5.7C179.2,42.6,179.2,42,179.2,41.2z"/>
	<path class="st3" d="M186.1,37.3c0-1.2,0-2.2-0.2-3.2c0.6-0.4,1.9-0.9,2.4-0.9c0.9,0,0.9,1,0.9,2.1c0,1.6-0.2,4-0.4,5.9h0.1
		c1.3-4.3,3-8,6.3-8c2.7,0,4,2.6,4,5.5c0,2.4-0.9,5.5-2.9,8c-1.7,2.1-4,3.4-6.5,3.4c-0.9,0-1.4-0.2-1.9-0.3
		c-0.6,3.9-1.3,7.9-1.9,11.4c-0.8,0.7-2,1.2-2.6,1.2c-0.3,0-0.5-0.2-0.5-0.5c0-0.6,0.6-3.3,1.5-8C185.3,48.3,186.1,42.8,186.1,37.3z
		 M191.4,48.5c1.4,0,2.5-0.9,3.3-2.4c1-1.9,1.4-4.7,1.4-6.5c0-1.3-0.2-4.6-1.9-4.6c-1.3,0-2.6,2.1-3.7,4.9c-0.9,2.4-1.7,5.5-2.2,7.7
		C188.9,48.1,190.4,48.5,191.4,48.5z"/>
</g>
<rect x="31.9" y="34" transform="matrix(0.7071 -0.7071 0.7071 0.7071 -16.096 35.9175)" class="st4" width="6.8" height="6.8"/>
<rect x="215.5" y="34" transform="matrix(0.7071 -0.7071 0.7071 0.7071 37.6884 165.7294)" class="st4" width="6.8" height="6.8"/>
</svg>
