<?xml version="1.0" encoding="utf-8"?>
<!-- Generator: Adobe Illustrator 19.2.1, SVG Export Plug-In . SVG Version: 6.00 Build 0)  -->
<svg version="1.1" id="Layer_1" xmlns="http://www.w3.org/2000/svg" xmlns:xlink="http://www.w3.org/1999/xlink" x="0px" y="0px"
	 viewBox="0 0 504 216" style="enable-background:new 0 0 504 216;" xml:space="preserve">
<style type="text/css">
	.st0{fill:#C0C5CC;}
	.st1{fill:#3B424E;}
	.st2{fill:#797879;}
	.st3{fill:#818181;}
	.st4{fill:#4C4B4C;}
</style>
<path class="st0" d="M76.8,141.7c-16,0.9-33.1-13-33-32.9c0-18.3,14.7-32.9,33.1-33c19.2,0,33.2,16.3,33,33.3
	C109.6,127.7,93.7,142.5,76.8,141.7z"/>
<path class="st0" d="M334.6,141.7c-15.9,0.9-33.1-12.9-33-32.9c0-18.3,14.7-33,33.1-33c18.3,0,32.9,14.6,32.9,33
	C367.7,128.5,350.8,142.6,334.6,141.7z"/>
<path class="st0" d="M453.5,108.9c0.4,18.3-15.7,33.7-34.3,33c-17.2-0.7-31.8-15.4-31.7-33.2c0.1-18.3,15-32.9,33.3-32.9
	C439,75.9,453.5,90.6,453.5,108.9z"/>
<path class="st0" d="M162.8,141.7c-15.2,0.9-33-11.9-33.1-32.9c-0.1-18.3,14.8-33,33.1-33c18.3,0,33.2,14.8,33,33.1
	C195.6,129.9,177.7,142.6,162.8,141.7z"/>
<path class="st0" d="M248.7,141.7c-16,0.9-33.1-13-33.1-32.9c0-18.3,14.7-33,33.1-33c18.4,0,33.1,14.8,33,33.1
	C281.6,129.2,264.2,142.6,248.7,141.7z"/>
<path class="st1" d="M71.5,119.6c0-3.1,0-6.2,0-9.4c0-1-0.3-1.3-1.3-1.3c-3.1,0-3.1-0.1-3.1-3.2c0-0.2,0-0.4,0-0.5
	c0-3.3,0-3.4,3.2-3.4c0.9,0,1.3-0.3,1.2-1.2c-0.1-1.7,0-3.5,0-5.2c0.1-4.2,2.6-6.9,6.7-7.2c2.4-0.2,4.8-0.1,7.2-0.2
	c0.9,0,1.2,0.3,1.1,1.2c0,1.7-0.1,3.4,0,5c0,1-0.4,1.2-1.3,1.2c-1.1-0.1-2.3,0-3.4,0c-1.2,0-1.8,0.6-1.9,1.7c-0.1,1.3,0,2.6-0.1,4
	c0,0.8,0.4,0.8,1,0.8c1.5,0,3,0,4.5,0c0.7,0,1.1,0.1,1,1c-0.2,1.7-0.4,3.5-0.5,5.2c0,0.8-0.3,1-1.1,1c-1.2,0-2.4,0.1-3.6,0
	c-1.1-0.1-1.4,0.4-1.4,1.4c0,6.1,0,12.2,0.1,18.4c0,1.3-0.3,1.7-1.6,1.6c-1.9-0.1-3.7-0.1-5.6,0c-1,0-1.3-0.3-1.3-1.3
	C71.5,125.8,71.5,122.7,71.5,119.6z"/>
<path class="st1" d="M333,116.8c-1.2,5.3-2.3,10.4-6.3,14.5c-0.7-3.3-0.8-6.3-0.1-9.4c0.8-3.7,1.7-7.3,2.6-11c0.3-1.2,0.4-2.4,0-3.7
	c-0.7-2.2-0.4-4.4,0.9-6.4c1.1-1.7,2.9-2.3,4.5-1.8c1.5,0.5,2.2,1.9,2,4c-0.2,2.4-1.1,4.5-1.8,6.8c-0.7,2.5-0.3,4.1,1.4,5.1
	c1.7,1,3.9,0.8,5.7-0.7c2.7-2.3,3.5-5.5,4-8.8c0.2-1.6,0.3-3.3-0.1-4.8c-0.9-3.6-3.2-5.8-6.8-6.6c-7.9-1.9-14.9,3.6-14.7,11.6
	c0,1.4,0.3,2.8,1.3,3.9c1.1,1.3,0.5,2.5,0.1,3.7c-0.3,0.9-1.1,0.6-1.7,0.3c-1.9-1-3-2.6-3.6-4.5c-1.6-4.9-0.5-9.4,2.7-13.3
	c5.1-6.2,15.5-7.9,22.3-3.5c4.6,3,6.8,7.3,6.4,12.8c-0.4,5.6-2.2,10.5-7.5,13.5c-0.4,0.2-0.7,0.4-1.1,0.5
	C339.4,120.2,336,120.1,333,116.8z"/>
<path class="st1" d="M423.4,104.3c2.1-2.6,4.5-3.7,7.5-3.6c4.7,0.3,7.6,3.1,7.8,8.2c0.3,5,0.1,10,0.1,14.9c0,0.6-0.1,1.1-0.9,1
	c-0.1,0-0.1,0-0.2,0c-2,0-4.4,0.6-5.8-0.3c-1.2-0.8-0.3-3.5-0.3-5.3c-0.1-2.3,0-4.6,0-6.8c0-3.4-1.4-5.1-4-5.1
	c-2.8,0-4.3,1.8-4.4,5.2c0,3.6-0.1,7.2,0,10.8c0,1.3-0.3,1.7-1.6,1.6c-1.4-0.1-2.9-0.1-4.3,0c-0.8,0-1.1-0.2-1.1-1
	c0-7.1,0-14.3,0-21.4c0-0.8,0.3-1,1.1-1c1.1,0,2.2,0,3.2,0C423.2,101.4,423.2,101.4,423.4,104.3z"/>
<path class="st1" d="M411.6,113.2c0,3.4,0,6.8,0,10.3c0,1-0.3,1.4-1.3,1.3c-1.6-0.1-3.1-0.1-4.7,0c-1,0-1.2-0.3-1.2-1.2
	c0-7,0-13.9,0-20.9c0-1,0.3-1.4,1.3-1.3c1.5,0.1,3,0.1,4.5,0c1.2-0.1,1.4,0.4,1.4,1.4C411.6,106.3,411.6,109.8,411.6,113.2z"/>
<path class="st1" d="M408.2,89.7c2.4,0.1,4.1,2,4.1,4.4c0,2.4-1.9,4.2-4.3,4.2c-2.4,0-4.2-2-4.1-4.5
	C403.9,91.4,405.8,89.7,408.2,89.7z"/>
<path class="st1" d="M148,106.7c0.8,0.1,1.4,0.6,2.4,0.3c-3-2.8-3.8-6-2-9.9c1.4,1.4,2.6,2.7,4.1,3.7c3.1,2.3,6.6,3.6,10.4,4.1
	c1,0.1,1.4,0,1.3-1.2c-0.3-3.3,1.2-5.7,4-7.2c2.9-1.6,5.8-1.1,8.4,0.9c0.6,0.5,1.1,0.6,1.8,0.3c1.1-0.4,2.2-0.8,3.5-1.3
	c-0.5,1.6-1.5,2.7-2.9,3.7c1.3,0.3,2.3-0.5,3.6-0.5c-0.2,0.3-0.3,0.7-0.5,0.8c-2.8,1.7-2.8,4.5-3.2,7.3c-2.2,15-19.5,23.1-32.5,15
	c2-0.2,3.8-0.1,5.6-0.7c1.7-0.6,3.3-1.3,5-2.5c-3-0.7-5.5-1.8-6.6-4.7c-0.1-0.6,0.4-0.6,0.8-0.6c0.6-0.1,1.3,0.2,1.8-0.2
	c-2.7-1.3-4.9-2.9-5.4-6.1C147.4,107.4,147,106.8,148,106.7z"/>
<path class="st2" d="M153,113.9c-0.7,0.9-1.9,0-2.6,0.8c-0.4-0.4-0.4-0.7,0.3-0.7C151.4,114,152.2,114,153,113.9z"/>
<path class="st3" d="M148,106.7c-0.5,0.3-0.3,0.8-0.5,1.2c-0.3-0.5-0.5-0.9-0.1-1.4C147.6,106.3,147.9,106.5,148,106.7z"/>
<path class="st1" d="M257.1,103.5c3.4,0,6.5,0,9.7,0c0.7,0,0.9,0.3,0.9,1c0,5.5,0.1,10.9-0.1,16.4c-0.1,3.3-2.9,6-6.2,6.5
	c-0.6,0.1-1.2,0.1-1.8,0.1c-7,0-13.9,0-20.9,0c-5.3,0-8.2-3-8.2-8.3c0-4.7,0-9.4,0-14.1c0-1.2,0.2-1.7,1.5-1.6c2.9,0.1,5.9,0,9,0
	c-2.6,5.4-2,10.1,3,13.6c3.3,2.3,7.6,2,10.8-0.6C259.2,113,259.6,108.5,257.1,103.5z"/>
<path class="st1" d="M233.6,91.7c0,2.4,0,4.4,0,6.5c0,0.5-0.3,1.3,0.7,1.3c1,0,0.8-0.7,0.8-1.2c0-2.2,0-4.3,0-6.5
	c0-0.5-0.2-1.3,0.7-1.2c0.7,0.1,0.4,0.8,0.4,1.2c0,2.2,0,4.3,0,6.5c0,0.6-0.2,1.3,0.8,1.2c0.9,0,0.7-0.7,0.7-1.2c0-2.4,0-4.8,0-7.2
	c0-0.4-0.2-0.9,0.5-0.9c0.7,0,0.5,0.5,0.5,0.9c0,2.4,0,4.8,0,7.2c0,0.5-0.2,1.1,0.7,1.2c1,0.1,0.8-0.6,0.8-1.2c0-2.3,0.1-4.6,0-6.8
	c0-1,0.3-1.3,1.3-1.3c6.2,0,12.5,0,18.7,0c4.3,0,7.3,3.2,7.4,7.5c0.1,4.7,0.1,4.7-4.6,4.7c-1,0-1.9,0-2.9,0c-2.3,0-4.4-0.1-6.6-1.6
	c-3.4-2.3-7.1-1.7-10.4,0.8c-0.8,0.6-1.5,0.8-2.4,0.8c-2.9,0-5.9-0.1-8.8,0c-1.1,0-1.5-0.2-1.5-1.4c0.1-2.4-0.3-4.8,1-7
	C232,93.1,232.5,92.4,233.6,91.7z"/>
<path class="st4" d="M249,116.3c-4,0-7.3-3.4-7.3-7.4c0.1-4,3.5-7.3,7.5-7.2c3.9,0.1,7.2,3.4,7.2,7.3
	C256.4,113,253.1,116.3,249,116.3z"/>
<path class="st0" d="M264.4,96.4c0,3.3,0,3.3-3.4,3.3c-3.1,0-3.1,0-3.1-3.6c0-2.9,0-2.9,3.5-2.9C264.4,93.2,264.4,93.2,264.4,96.4z"
	/>
<path class="st0" d="M249.2,114.4c-3.1,0-5.5-2.3-5.5-5.4c0-3,2.4-5.4,5.3-5.5c3-0.1,5.6,2.5,5.5,5.5
	C254.6,112,252.2,114.4,249.2,114.4z"/>
</svg>
