<?xml version="1.0" encoding="utf-8"?>
<!-- Generator: Adobe Illustrator 19.2.1, SVG Export Plug-In . SVG Version: 6.00 Build 0)  -->
<svg version="1.1" id="Layer_1" xmlns="http://www.w3.org/2000/svg" xmlns:xlink="http://www.w3.org/1999/xlink" x="0px" y="0px"
	 viewBox="0 0 144 144" style="enable-background:new 0 0 144 144;" xml:space="preserve">
<style type="text/css">
	.st0{fill:#BFC5CB;stroke:#BFC5CB;stroke-width:3.2151;stroke-miterlimit:10;}
	.st1{fill:#BFC5CB;stroke:#BFC5CB;stroke-width:3.4486;stroke-miterlimit:10;}
	.st2{fill-rule:evenodd;clip-rule:evenodd;fill:#BFC5CB;}
</style>
<path class="st0" d="M139.6,78.8c-7.5-0.3-14.9-0.7-22.4-1c-10.5-0.5-21-1.1-31.5-1.5c-1.6-0.1-3.2,0.3-4.7,0.8
	c-14.6,4.6-29.1,9.2-43.7,13.8c-1.8,0.6-2.5,1.4-2.8,3.2c-0.7,5.4-4,8.8-8.9,10.6c-4.9,1.7-9.5,1.1-13.5-2.3c-7-6-4.1-17.7,5.2-20.8
	c5.8-1.9,10.9-0.7,15,3.9c0.5,0.5,1.7,0.8,2.4,0.6C44.8,83,54.9,80,64.9,76.5c1.7-0.6,4-3.3,3.8-4.8c-0.2-1.7-2.6-4.1-4.4-4.6
	c-10.1-2.6-20.3-4.6-30.4-6.9c-1.5-0.4-2.1,0.1-3,1.2c-3.3,4.7-9.3,6.5-15,4.7c-5.7-1.8-9.4-6.5-9.5-12.2
	C6.3,45.9,15.2,40,23.6,42.8c4.8,1.6,8.1,4.7,9.2,9.8c0.3,1.6,0.9,2.3,2.6,2.7c15.5,3.3,30.9,6.9,46.4,10c3.6,0.7,7.6-0.4,11.3-0.9
	c14.4-1.9,28.8-4,43.1-5.9c0.8-0.1,1.6-0.1,2.5,0.2c-11.5,3.7-23,7.3-34.6,11c0,0.2-0.1,0.4-0.1,0.6c11.8,2.6,23.7,5.2,35.5,7.9
	C139.6,78.4,139.6,78.6,139.6,78.8z M31.8,92.3c-0.2-5.1-4.7-9-10.2-8.7c-5.9,0.2-10.9,5.1-10.7,10.5c0.1,5,4.8,8.9,10.3,8.7
	C27.2,102.5,32,97.8,31.8,92.3z M18.8,45c-5.7,0.3-9.9,4.5-9.6,9.7c0.3,5.2,5.7,9.6,11.4,9.4c5.5-0.2,9.7-4.4,9.5-9.5
	C30,49.1,24.8,44.7,18.8,45z M72.2,71.5c1.2,0.7,2,1.5,2.6,1.5c0.6,0,1.6-1.2,1.5-1.6c-0.2-0.7-1-1.5-1.8-1.7
	C74,69.6,73.3,70.5,72.2,71.5z"/>
</svg>
