<?xml version="1.0" encoding="utf-8"?>
<!-- Generator: Adobe Illustrator 19.2.1, SVG Export Plug-In . SVG Version: 6.00 Build 0)  -->
<svg version="1.1" id="Layer_1" xmlns="http://www.w3.org/2000/svg" xmlns:xlink="http://www.w3.org/1999/xlink" x="0px" y="0px"
	 viewBox="0 0 144 144" style="enable-background:new 0 0 144 144;" xml:space="preserve">
<style type="text/css">
	.st0{fill:#BFC5CB;stroke:#BFC5CB;stroke-width:3.2151;stroke-miterlimit:10;}
	.st1{fill:#BFC5CB;stroke:#BFC5CB;stroke-width:3.4486;stroke-miterlimit:10;}
	.st2{fill-rule:evenodd;clip-rule:evenodd;fill:#BFC5CB;}
</style>
<path class="st1" d="M73.1,37.9c1,0.2,2,0.3,3,0.5c3,0.6,5.8,1.7,8.4,3.3c2.3,1.4,4.4,3.2,6.2,5.3c1.8,2.2,3.3,4.7,4.3,7.4
	c1,2.6,1.5,5.2,1.6,8c0.1,2.6-0.5,5-1.3,7.4c-1.7,4.6-4.1,8.9-6.9,12.9c-2.3,3.3-4.7,6.6-7.2,9.8c-2.5,3.1-5.2,6-7.8,9
	c-0.6,0.7-1.3,1.4-2,2.2c-1-1.1-2-2-2.9-3.1c-2.8-3.3-5.7-6.6-8.4-9.9c-3.5-4.3-6.6-8.9-9.4-13.7c-1.6-2.9-3.1-6-4-9.3
	c-0.8-2.8-0.8-5.6-0.3-8.5c0.7-4.3,2.4-8.2,5.1-11.6c2-2.5,4.4-4.6,7.2-6.2c3.3-1.9,6.8-3,10.6-3.4c0.2,0,0.3-0.1,0.5-0.1
	C70.8,37.9,72,37.9,73.1,37.9z M81.8,63.1c0-5.8-4.7-10.5-10.4-10.4c-5.8,0-10.5,4.7-10.5,10.5c0,5.8,4.7,10.4,10.4,10.4
	C77.1,73.6,81.8,68.9,81.8,63.1z"/>
</svg>
